<svg width="24" height="24" viewBox="0 0 24 24" fill="none" xmlns="http://www.w3.org/2000/svg">
<path d="M20 8.5H16.5C15.3954 8.5 14.5 7.60457 14.5 6.5V3" stroke="#E2EAF7" stroke-width="1.5" stroke-linecap="round" stroke-linejoin="round"/>
<path d="M20 8.5H16.5C15.3954 8.5 14.5 7.60457 14.5 6.5V3" stroke="white" stroke-opacity="0.2" stroke-width="1.5" stroke-linecap="round" stroke-linejoin="round"/>
<path d="M12 21H17C18.6569 21 20 19.6569 20 18V8.24264C20 7.44699 19.6839 6.68393 19.1213 6.12132L16.8787 3.87868C16.3161 3.31607 15.553 3 14.7574 3H7C5.34315 3 4 4.34315 4 6V13" stroke="#E2EAF7" stroke-width="1.5" stroke-linecap="round" stroke-linejoin="round"/>
<path d="M12 21H17C18.6569 21 20 19.6569 20 18V8.24264C20 7.44699 19.6839 6.68393 19.1213 6.12132L16.8787 3.87868C16.3161 3.31607 15.553 3 14.7574 3H7C5.34315 3 4 4.34315 4 6V13" stroke="white" stroke-opacity="0.2" stroke-width="1.5" stroke-linecap="round" stroke-linejoin="round"/>
<path d="M7 20V16" stroke="#E2EAF7" stroke-width="1.5" stroke-linecap="round" stroke-linejoin="round"/>
<path d="M7 20V16" stroke="white" stroke-opacity="0.2" stroke-width="1.5" stroke-linecap="round" stroke-linejoin="round"/>
<path d="M5 18H9" stroke="#E2EAF7" stroke-width="1.5" stroke-linecap="round" stroke-linejoin="round"/>
<path d="M5 18H9" stroke="white" stroke-opacity="0.2" stroke-width="1.5" stroke-linecap="round" stroke-linejoin="round"/>
</svg>
